<svg width="64" height="64" viewBox="0 0 64 64" fill="none" xmlns="http://www.w3.org/2000/svg">
<path d="M55.8591 55.9771H8.13475C6.18512 55.9771 4.59961 54.3916 4.59961 52.4419V19.6403C4.59961 17.6907 6.18512 16.1052 8.13475 16.1052H55.8591C57.8087 16.1052 59.3942 17.6907 59.3942 19.6403V52.4419C59.3942 54.3916 57.8087 55.9771 55.8591 55.9771ZM8.13475 17.8727C7.15993 17.8727 6.36718 18.6655 6.36718 19.6403V52.4419C6.36718 53.4168 7.15993 54.2095 8.13475 54.2095H55.8591C56.8339 54.2095 57.6267 53.4168 57.6267 52.4419V19.6403C57.6267 18.6655 56.8339 17.8727 55.8591 17.8727H8.13475Z" fill="#4DE1FF"/>
<path d="M40.6634 47.9825H23.1592C22.6713 47.9825 22.2754 47.5874 22.2754 47.0987V43.1172C22.2754 38.0797 26.1888 33.9816 31.0001 33.9816H32.8234C37.6338 33.9816 41.5472 38.0797 41.5472 43.1172V47.0987C41.5472 47.5874 41.1513 47.9825 40.6634 47.9825ZM24.043 46.2149H39.7787V43.1172C39.7787 39.0545 36.6581 35.7491 32.8225 35.7491H30.9992C27.1636 35.7491 24.0421 39.0545 24.0421 43.1172V46.2149H24.043Z" fill="#4DE1FF"/>
<path d="M31.9003 36.6603C34.9422 36.6603 37.4081 34.0464 37.4081 30.822C37.4081 27.5977 34.9422 24.9838 31.9003 24.9838C28.8585 24.9838 26.3926 27.5977 26.3926 30.822C26.3926 34.0464 28.8585 36.6603 31.9003 36.6603Z" fill="#005CC2"/>
<path d="M31.9013 37.544C28.3768 37.544 25.5098 34.5286 25.5098 30.8229C25.5098 27.1172 28.3768 24.1017 31.9013 24.1017C35.4258 24.1017 38.2928 27.1172 38.2928 30.8229C38.2928 34.5286 35.4258 37.544 31.9013 37.544ZM31.9013 25.8684C29.3516 25.8684 27.2773 28.0911 27.2773 30.822C27.2773 33.5529 29.3516 35.7756 31.9013 35.7756C34.451 35.7756 36.5253 33.5529 36.5253 30.822C36.5253 28.0911 34.451 25.8684 31.9013 25.8684Z" fill="#4DE1FF"/>
<path d="M37.7601 17.8727H26.2373C25.7495 17.8727 25.3535 17.4777 25.3535 16.989V15.5537C25.3535 12.4914 27.8449 10 30.9072 10H33.0902C36.1525 10 38.6439 12.4914 38.6439 15.5537V16.989C38.6439 17.4777 38.2479 17.8727 37.7601 17.8727ZM27.1211 16.1052H36.8763V15.5537C36.8763 13.4662 35.1777 11.7676 33.0902 11.7676H30.9072C28.8197 11.7676 27.1211 13.4662 27.1211 15.5537V16.1052Z" fill="#4DE1FF"/>
</svg>
